<svg width="60" height="21" viewBox="0 0 60 21" fill="none" xmlns="http://www.w3.org/2000/svg">
<path d="M0.992 20.14C0.544 20.14 0.32 20 0.32 19.72C0.32 19.608 0.394666 19.5147 0.544 19.44C0.674666 19.3653 0.917333 19.2813 1.272 19.188C2.76533 18.796 3.988 18.0587 4.94 16.976C6.35867 15.408 7.67467 13.868 8.888 12.356C10.1013 10.844 11.4733 9.08 13.004 7.064C12.8547 7.25067 13.6293 6.252 15.328 4.068L15.86 3.396C16.028 3.172 16.1773 2.98533 16.308 2.836C16.4387 2.668 16.5413 2.584 16.616 2.584C16.9147 2.584 17.1293 2.54667 17.26 2.472C17.4093 2.37866 17.5493 2.26667 17.68 2.136C17.8107 2.00533 17.904 1.90267 17.96 1.828C18.0347 1.73467 18.1467 1.61333 18.296 1.464C18.4453 1.296 18.548 1.19333 18.604 1.156C18.6787 1.1 18.744 1.072 18.8 1.072C18.9307 1.072 18.996 1.19333 18.996 1.436C18.996 1.64133 18.9773 1.81867 18.94 1.968L16.028 16.584C15.9347 16.9947 15.888 17.4053 15.888 17.816C15.888 18.2453 15.972 18.572 16.14 18.796C16.3267 19.02 16.616 19.188 17.008 19.3C17.3627 19.3933 17.596 19.4773 17.708 19.552C17.8387 19.608 17.904 19.692 17.904 19.804C17.904 20.028 17.6147 20.14 17.036 20.14L15.72 20.084C14.824 20.0093 14.1333 19.972 13.648 19.972L10.876 20C10.428 20 10.204 19.8693 10.204 19.608C10.204 19.496 10.2787 19.3933 10.428 19.3C10.5773 19.2067 10.764 19.1413 10.988 19.104C11.6227 18.992 12.108 18.8707 12.444 18.74C12.78 18.5907 13.0413 18.376 13.228 18.096C13.4147 17.816 13.5827 17.4053 13.732 16.864L14.6 13.532C14.6747 13.2707 14.628 13.084 14.46 12.972C14.3107 12.8413 14.0867 12.776 13.788 12.776L10.652 12.832C10.3533 12.832 10.1107 12.8693 9.924 12.944C9.73733 13.0187 9.57867 13.1493 9.448 13.336L6.564 17.144C6.19067 17.6107 6.004 18.0027 6.004 18.32C6.004 18.5067 6.06933 18.656 6.2 18.768C6.33067 18.8613 6.51733 18.9547 6.76 19.048C7.22667 19.1973 7.46 19.4027 7.46 19.664C7.46 19.9067 7.19867 20.028 6.676 20.028C6.37733 20.028 6.13467 20.0187 5.948 20L4.492 19.972C4.06267 19.972 3.68 19.9813 3.344 20C3.008 20.0187 2.728 20.0373 2.504 20.056C1.944 20.112 1.44 20.14 0.992 20.14ZM14.348 11.852C14.5533 11.852 14.712 11.796 14.824 11.684C14.936 11.5533 15.0293 11.348 15.104 11.068L16.448 4.936C16.504 4.73067 16.532 4.58133 16.532 4.488C16.532 4.35733 16.476 4.292 16.364 4.292C16.1587 4.292 15.9813 4.404 15.832 4.628L10.848 11.264C10.6987 11.488 10.624 11.6187 10.624 11.656C10.624 11.8053 10.8667 11.88 11.352 11.88L14.348 11.852Z" fill="#22292F"/>
<path d="M21.6468 20.448C21.4601 20.448 21.2828 20.336 21.1148 20.112C20.9655 19.9067 20.8908 19.692 20.8908 19.468C20.8908 19.412 20.9095 19.328 20.9468 19.216L24.1948 11.264C24.3815 10.8347 24.4748 10.508 24.4748 10.284C24.4748 10.116 24.4001 10.032 24.2508 10.032C23.8961 10.032 23.5601 10.116 23.2428 10.284C22.9441 10.452 22.5895 10.7973 22.1788 11.32C22.1228 11.3947 22.0481 11.432 21.9548 11.432C21.8428 11.432 21.7775 11.3573 21.7588 11.208C21.7401 11.0587 21.7961 10.844 21.9268 10.564C22.0575 10.2653 22.1975 10.0133 22.3468 9.808C22.6268 9.37867 23.0095 9.04267 23.4948 8.8C23.9801 8.55733 24.5308 8.42667 25.1468 8.408C25.4081 8.408 25.6321 8.492 25.8188 8.66C26.0241 8.828 26.1268 9.04267 26.1268 9.304C26.1268 9.36 26.1081 9.46267 26.0708 9.612L24.2228 14.372L24.1948 14.484C24.1948 14.5587 24.2321 14.596 24.3068 14.596C24.3815 14.596 24.4375 14.5587 24.4748 14.484C25.5948 12.58 26.7428 11.096 27.9188 10.032C29.1135 8.94933 30.1495 8.408 31.0268 8.408C31.4748 8.408 31.8481 8.576 32.1468 8.912C32.4641 9.248 32.6228 9.68667 32.6228 10.228C32.6228 10.6387 32.5295 11.0587 32.3428 11.488L29.7668 17.592C29.6548 17.8907 29.5988 18.1147 29.5988 18.264C29.5988 18.488 29.7015 18.6 29.9068 18.6C30.2988 18.6 30.8588 18.3573 31.5868 17.872C32.3148 17.368 32.8188 16.976 33.0988 16.696C33.1175 16.6773 33.1455 16.668 33.1828 16.668C33.2388 16.668 33.2855 16.696 33.3228 16.752C33.3788 16.7893 33.4068 16.8453 33.4068 16.92C33.4068 17.0693 33.3695 17.2 33.2948 17.312C32.5295 18.2453 31.7081 18.992 30.8308 19.552C29.9535 20.112 29.0948 20.392 28.2548 20.392C28.0308 20.392 27.8161 20.2987 27.6108 20.112C27.4241 19.9253 27.3308 19.7107 27.3308 19.468C27.3308 19.3373 27.3495 19.2347 27.3868 19.16L27.9468 17.9C28.1335 17.4893 28.5068 16.6307 29.0668 15.324C29.6455 13.9987 30.1495 12.7853 30.5788 11.684C30.8028 11.068 30.9148 10.6107 30.9148 10.312C30.9148 9.82667 30.7188 9.584 30.3268 9.584C30.0095 9.584 29.6081 9.77067 29.1228 10.144C28.6375 10.4987 28.1055 11.04 27.5268 11.768C27.0788 12.3093 26.3508 13.364 25.3428 14.932C24.3348 16.4813 23.3921 18.0307 22.5148 19.58C22.3468 19.8973 22.1975 20.1213 22.0668 20.252C21.9361 20.3827 21.7961 20.448 21.6468 20.448Z" fill="#22292F"/>
<path d="M35.3764 20.392C34.9471 20.392 34.5924 20.2707 34.3124 20.028C34.0138 19.804 33.8644 19.5147 33.8644 19.16C33.8644 18.768 33.9578 18.46 34.1444 18.236C34.3124 17.9933 34.4804 17.872 34.6484 17.872C34.7604 17.872 34.8911 17.928 35.0404 18.04C35.2084 18.152 35.3671 18.2733 35.5164 18.404C35.7778 18.6093 36.0298 18.768 36.2724 18.88C36.5151 18.992 36.8231 19.048 37.1964 19.048C37.6818 19.048 38.0738 18.88 38.3724 18.544C38.6898 18.1893 38.8578 17.788 38.8764 17.34C38.8764 16.5 38.6058 15.5853 38.0644 14.596C37.5044 13.6067 37.2244 12.8413 37.2244 12.3C37.2244 11.628 37.4484 10.9933 37.8964 10.396C38.3631 9.79867 38.8951 9.32267 39.4924 8.968C40.1084 8.59466 40.5938 8.408 40.9484 8.408C41.2844 8.408 41.6298 8.548 41.9844 8.828C42.3391 9.108 42.5164 9.35067 42.5164 9.556C42.5164 9.724 42.3951 9.93867 42.1524 10.2C41.9284 10.4613 41.7324 10.592 41.5644 10.592C41.4524 10.592 41.3311 10.5267 41.2004 10.396C41.0884 10.2653 41.0138 10.1813 40.9764 10.144C40.6778 9.84533 40.3324 9.696 39.9404 9.696C39.6231 9.696 39.3524 9.82667 39.1284 10.088C38.9231 10.3493 38.8204 10.676 38.8204 11.068C38.8204 11.292 38.9138 11.6747 39.1004 12.216C39.3058 12.7573 39.5204 13.2333 39.7444 13.644C39.9684 14.0547 40.1644 14.5493 40.3324 15.128C40.5004 15.688 40.5844 16.164 40.5844 16.556C40.5844 17.2653 40.3138 17.9187 39.7724 18.516C39.2311 19.0947 38.5498 19.552 37.7284 19.888C36.9258 20.224 36.1418 20.392 35.3764 20.392Z" fill="#22292F"/>
<path d="M45.3547 20.42C44.9627 20.42 44.5614 20.2707 44.1507 19.972C43.7587 19.6733 43.4321 19.3 43.1707 18.852C42.9094 18.3853 42.7787 17.9373 42.7787 17.508C42.7787 16.2387 43.1147 14.8947 43.7867 13.476C44.4774 12.0387 45.3827 10.8347 46.5027 9.864C47.6414 8.89333 48.8361 8.408 50.0867 8.408C50.7401 8.408 51.2441 8.548 51.5987 8.828C51.9721 9.08933 52.1587 9.46267 52.1587 9.948C52.1587 11.012 51.5707 11.8427 50.3947 12.44C49.2187 13.0373 47.6787 13.5133 45.7747 13.868C45.7561 13.868 45.7094 13.8773 45.6347 13.896C45.5601 13.9147 45.4947 13.9427 45.4387 13.98C45.4014 14.0173 45.3734 14.0733 45.3547 14.148C44.9627 15.2867 44.7667 16.192 44.7667 16.864C44.7667 17.5173 44.8881 18.0213 45.1307 18.376C45.3921 18.7307 45.7654 18.908 46.2507 18.908C46.8481 18.908 47.3707 18.768 47.8187 18.488C48.2667 18.208 48.6961 17.844 49.1067 17.396C49.2934 17.1907 49.4614 17.088 49.6107 17.088C49.7974 17.088 49.8907 17.1813 49.8907 17.368C49.8907 17.4613 49.8721 17.536 49.8347 17.592C49.2747 18.5067 48.6121 19.2067 47.8467 19.692C47.0814 20.1773 46.2507 20.42 45.3547 20.42ZM45.9707 13.224C46.3441 13.224 46.9041 13.1027 47.6507 12.86C48.3974 12.5987 49.0601 12.2253 49.6387 11.74C50.2361 11.2547 50.5347 10.676 50.5347 10.004C50.5347 9.76133 50.4601 9.556 50.3107 9.388C50.1801 9.20133 50.0027 9.108 49.7787 9.108C49.3121 9.108 48.7614 9.36933 48.1267 9.892C47.5107 10.4147 46.9601 11.0027 46.4747 11.656C46.0081 12.3093 45.7747 12.776 45.7747 13.056C45.7747 13.1307 45.7934 13.1773 45.8307 13.196C45.8681 13.2147 45.9147 13.224 45.9707 13.224Z" fill="#22292F"/>
<path d="M52.7868 20.392C52.5254 20.392 52.2454 20.2613 51.9468 20C51.6668 19.7387 51.5267 19.4587 51.5267 19.16L51.5827 18.824L56.9028 3.676C57.0894 3.172 57.1828 2.67733 57.1828 2.192C57.1828 2.024 57.0894 1.86533 56.9028 1.716C56.7348 1.56667 56.5201 1.464 56.2588 1.408C55.8481 1.31467 55.6427 1.19333 55.6427 1.044C55.6427 0.857332 55.6987 0.754666 55.8107 0.735999C56.3334 0.605332 57.0054 0.474666 57.8268 0.344C58.6481 0.213333 59.1708 0.147999 59.3948 0.147999C59.4881 0.147999 59.5628 0.185332 59.6188 0.259998C59.6934 0.334665 59.7308 0.437333 59.7308 0.568C59.7308 0.754666 59.6748 1.016 59.5628 1.352L53.9067 17.48C53.8134 17.7413 53.7668 18.012 53.7668 18.292C53.7668 18.5907 53.8601 18.74 54.0467 18.74C54.4014 18.74 54.8868 18.46 55.5028 17.9C56.1188 17.3213 56.6321 16.7427 57.0428 16.164C57.1734 15.996 57.3041 15.8467 57.4347 15.716C57.5841 15.5853 57.6961 15.52 57.7708 15.52C57.8268 15.52 57.8641 15.5573 57.8828 15.632C57.9014 15.7067 57.9108 15.7907 57.9108 15.884C57.9108 16.4627 57.5934 17.1067 56.9588 17.816C56.3428 18.5253 55.6147 19.132 54.7747 19.636C53.9534 20.14 53.2908 20.392 52.7868 20.392Z" fill="#22292F"/>
</svg>
