<svg width="60" height="21" viewBox="0 0 60 21" fill="none" xmlns="http://www.w3.org/2000/svg">
<path d="M0.992068 20.14C0.544068 20.14 0.320068 20 0.320068 19.72C0.320068 19.608 0.394735 19.5147 0.544068 19.44C0.674735 19.3653 0.917402 19.2813 1.27207 19.188C2.7654 18.796 3.98807 18.0587 4.94007 16.976C6.35873 15.408 7.67473 13.868 8.88807 12.356C10.1014 10.844 11.4734 9.08 13.0041 7.064C12.8547 7.25067 13.6294 6.252 15.3281 4.068L15.8601 3.396C16.0281 3.172 16.1774 2.98533 16.3081 2.836C16.4387 2.668 16.5414 2.584 16.6161 2.584C16.9147 2.584 17.1294 2.54667 17.2601 2.472C17.4094 2.37866 17.5494 2.26667 17.6801 2.136C17.8107 2.00533 17.9041 1.90267 17.9601 1.828C18.0347 1.73467 18.1467 1.61333 18.2961 1.464C18.4454 1.296 18.5481 1.19333 18.6041 1.156C18.6787 1.1 18.7441 1.072 18.8001 1.072C18.9307 1.072 18.9961 1.19333 18.9961 1.436C18.9961 1.64133 18.9774 1.81867 18.9401 1.968L16.0281 16.584C15.9347 16.9947 15.8881 17.4053 15.8881 17.816C15.8881 18.2453 15.9721 18.572 16.1401 18.796C16.3267 19.02 16.6161 19.188 17.0081 19.3C17.3627 19.3933 17.5961 19.4773 17.7081 19.552C17.8387 19.608 17.9041 19.692 17.9041 19.804C17.9041 20.028 17.6147 20.14 17.0361 20.14L15.7201 20.084C14.8241 20.0093 14.1334 19.972 13.6481 19.972L10.8761 20C10.4281 20 10.2041 19.8693 10.2041 19.608C10.2041 19.496 10.2787 19.3933 10.4281 19.3C10.5774 19.2067 10.7641 19.1413 10.9881 19.104C11.6227 18.992 12.1081 18.8707 12.4441 18.74C12.7801 18.5907 13.0414 18.376 13.2281 18.096C13.4147 17.816 13.5827 17.4053 13.7321 16.864L14.6001 13.532C14.6747 13.2707 14.6281 13.084 14.4601 12.972C14.3107 12.8413 14.0867 12.776 13.7881 12.776L10.6521 12.832C10.3534 12.832 10.1107 12.8693 9.92407 12.944C9.7374 13.0187 9.57874 13.1493 9.44807 13.336L6.56407 17.144C6.19074 17.6107 6.00407 18.0027 6.00407 18.32C6.00407 18.5067 6.0694 18.656 6.20007 18.768C6.33074 18.8613 6.5174 18.9547 6.76007 19.048C7.22674 19.1973 7.46007 19.4027 7.46007 19.664C7.46007 19.9067 7.19873 20.028 6.67607 20.028C6.3774 20.028 6.13474 20.0187 5.94807 20L4.49207 19.972C4.06273 19.972 3.68007 19.9813 3.34407 20C3.00807 20.0187 2.72807 20.0373 2.50407 20.056C1.94407 20.112 1.44007 20.14 0.992068 20.14ZM14.3481 11.852C14.5534 11.852 14.7121 11.796 14.8241 11.684C14.9361 11.5533 15.0294 11.348 15.1041 11.068L16.4481 4.936C16.5041 4.73067 16.5321 4.58133 16.5321 4.488C16.5321 4.35733 16.4761 4.292 16.3641 4.292C16.1587 4.292 15.9814 4.404 15.8321 4.628L10.8481 11.264C10.6987 11.488 10.6241 11.6187 10.6241 11.656C10.6241 11.8053 10.8667 11.88 11.3521 11.88L14.3481 11.852Z" fill="white"/>
<path d="M21.6469 20.448C21.4602 20.448 21.2829 20.336 21.1149 20.112C20.9655 19.9067 20.8909 19.692 20.8909 19.468C20.8909 19.412 20.9095 19.328 20.9469 19.216L24.1949 11.264C24.3815 10.8347 24.4749 10.508 24.4749 10.284C24.4749 10.116 24.4002 10.032 24.2509 10.032C23.8962 10.032 23.5602 10.116 23.2429 10.284C22.9442 10.452 22.5895 10.7973 22.1789 11.32C22.1229 11.3947 22.0482 11.432 21.9549 11.432C21.8429 11.432 21.7775 11.3573 21.7589 11.208C21.7402 11.0587 21.7962 10.844 21.9269 10.564C22.0575 10.2653 22.1975 10.0133 22.3469 9.808C22.6269 9.37867 23.0095 9.04267 23.4949 8.8C23.9802 8.55733 24.5309 8.42667 25.1469 8.408C25.4082 8.408 25.6322 8.492 25.8189 8.66C26.0242 8.828 26.1269 9.04267 26.1269 9.304C26.1269 9.36 26.1082 9.46267 26.0709 9.612L24.2229 14.372L24.1949 14.484C24.1949 14.5587 24.2322 14.596 24.3069 14.596C24.3815 14.596 24.4375 14.5587 24.4749 14.484C25.5949 12.58 26.7429 11.096 27.9189 10.032C29.1135 8.94933 30.1495 8.408 31.0269 8.408C31.4749 8.408 31.8482 8.576 32.1469 8.912C32.4642 9.248 32.6229 9.68667 32.6229 10.228C32.6229 10.6387 32.5295 11.0587 32.3429 11.488L29.7669 17.592C29.6549 17.8907 29.5989 18.1147 29.5989 18.264C29.5989 18.488 29.7015 18.6 29.9069 18.6C30.2989 18.6 30.8589 18.3573 31.5869 17.872C32.3149 17.368 32.8189 16.976 33.0989 16.696C33.1175 16.6773 33.1455 16.668 33.1829 16.668C33.2389 16.668 33.2855 16.696 33.3229 16.752C33.3789 16.7893 33.4069 16.8453 33.4069 16.92C33.4069 17.0693 33.3695 17.2 33.2949 17.312C32.5295 18.2453 31.7082 18.992 30.8309 19.552C29.9535 20.112 29.0949 20.392 28.2549 20.392C28.0309 20.392 27.8162 20.2987 27.6109 20.112C27.4242 19.9253 27.3309 19.7107 27.3309 19.468C27.3309 19.3373 27.3495 19.2347 27.3869 19.16L27.9469 17.9C28.1335 17.4893 28.5069 16.6307 29.0669 15.324C29.6455 13.9987 30.1495 12.7853 30.5789 11.684C30.8029 11.068 30.9149 10.6107 30.9149 10.312C30.9149 9.82667 30.7189 9.584 30.3269 9.584C30.0095 9.584 29.6082 9.77067 29.1229 10.144C28.6375 10.4987 28.1055 11.04 27.5269 11.768C27.0789 12.3093 26.3509 13.364 25.3429 14.932C24.3349 16.4813 23.3922 18.0307 22.5149 19.58C22.3469 19.8973 22.1975 20.1213 22.0669 20.252C21.9362 20.3827 21.7962 20.448 21.6469 20.448Z" fill="white"/>
<path d="M35.3765 20.392C34.9472 20.392 34.5925 20.2707 34.3125 20.028C34.0138 19.804 33.8645 19.5147 33.8645 19.16C33.8645 18.768 33.9578 18.46 34.1445 18.236C34.3125 17.9933 34.4805 17.872 34.6485 17.872C34.7605 17.872 34.8912 17.928 35.0405 18.04C35.2085 18.152 35.3672 18.2733 35.5165 18.404C35.7778 18.6093 36.0298 18.768 36.2725 18.88C36.5152 18.992 36.8232 19.048 37.1965 19.048C37.6818 19.048 38.0738 18.88 38.3725 18.544C38.6898 18.1893 38.8578 17.788 38.8765 17.34C38.8765 16.5 38.6058 15.5853 38.0645 14.596C37.5045 13.6067 37.2245 12.8413 37.2245 12.3C37.2245 11.628 37.4485 10.9933 37.8965 10.396C38.3632 9.79867 38.8952 9.32267 39.4925 8.968C40.1085 8.59466 40.5938 8.408 40.9485 8.408C41.2845 8.408 41.6298 8.548 41.9845 8.828C42.3392 9.108 42.5165 9.35067 42.5165 9.556C42.5165 9.724 42.3952 9.93867 42.1525 10.2C41.9285 10.4613 41.7325 10.592 41.5645 10.592C41.4525 10.592 41.3312 10.5267 41.2005 10.396C41.0885 10.2653 41.0138 10.1813 40.9765 10.144C40.6778 9.84533 40.3325 9.696 39.9405 9.696C39.6232 9.696 39.3525 9.82667 39.1285 10.088C38.9232 10.3493 38.8205 10.676 38.8205 11.068C38.8205 11.292 38.9138 11.6747 39.1005 12.216C39.3058 12.7573 39.5205 13.2333 39.7445 13.644C39.9685 14.0547 40.1645 14.5493 40.3325 15.128C40.5005 15.688 40.5845 16.164 40.5845 16.556C40.5845 17.2653 40.3138 17.9187 39.7725 18.516C39.2312 19.0947 38.5498 19.552 37.7285 19.888C36.9258 20.224 36.1418 20.392 35.3765 20.392Z" fill="white"/>
<path d="M45.3548 20.42C44.9628 20.42 44.5615 20.2707 44.1508 19.972C43.7588 19.6733 43.4321 19.3 43.1708 18.852C42.9095 18.3853 42.7788 17.9373 42.7788 17.508C42.7788 16.2387 43.1148 14.8947 43.7868 13.476C44.4775 12.0387 45.3828 10.8347 46.5028 9.864C47.6415 8.89333 48.8361 8.408 50.0868 8.408C50.7401 8.408 51.2441 8.548 51.5988 8.828C51.9721 9.08933 52.1588 9.46267 52.1588 9.948C52.1588 11.012 51.5708 11.8427 50.3948 12.44C49.2188 13.0373 47.6788 13.5133 45.7748 13.868C45.7561 13.868 45.7095 13.8773 45.6348 13.896C45.5601 13.9147 45.4948 13.9427 45.4388 13.98C45.4015 14.0173 45.3735 14.0733 45.3548 14.148C44.9628 15.2867 44.7668 16.192 44.7668 16.864C44.7668 17.5173 44.8881 18.0213 45.1308 18.376C45.3921 18.7307 45.7655 18.908 46.2508 18.908C46.8481 18.908 47.3708 18.768 47.8188 18.488C48.2668 18.208 48.6961 17.844 49.1068 17.396C49.2935 17.1907 49.4615 17.088 49.6108 17.088C49.7975 17.088 49.8908 17.1813 49.8908 17.368C49.8908 17.4613 49.8721 17.536 49.8348 17.592C49.2748 18.5067 48.6121 19.2067 47.8468 19.692C47.0815 20.1773 46.2508 20.42 45.3548 20.42ZM45.9708 13.224C46.3441 13.224 46.9041 13.1027 47.6508 12.86C48.3975 12.5987 49.0601 12.2253 49.6388 11.74C50.2361 11.2547 50.5348 10.676 50.5348 10.004C50.5348 9.76133 50.4601 9.556 50.3108 9.388C50.1801 9.20133 50.0028 9.108 49.7788 9.108C49.3121 9.108 48.7615 9.36933 48.1268 9.892C47.5108 10.4147 46.9601 11.0027 46.4748 11.656C46.0081 12.3093 45.7748 12.776 45.7748 13.056C45.7748 13.1307 45.7935 13.1773 45.8308 13.196C45.8681 13.2147 45.9148 13.224 45.9708 13.224Z" fill="white"/>
<path d="M52.7868 20.392C52.5255 20.392 52.2455 20.2613 51.9468 20C51.6668 19.7387 51.5268 19.4587 51.5268 19.16L51.5828 18.824L56.9028 3.676C57.0895 3.172 57.1828 2.67733 57.1828 2.192C57.1828 2.024 57.0895 1.86533 56.9028 1.716C56.7348 1.56667 56.5202 1.464 56.2588 1.408C55.8482 1.31467 55.6428 1.19333 55.6428 1.044C55.6428 0.857332 55.6988 0.754666 55.8108 0.735999C56.3335 0.605332 57.0055 0.474666 57.8268 0.344C58.6482 0.213333 59.1708 0.147999 59.3948 0.147999C59.4882 0.147999 59.5628 0.185332 59.6188 0.259998C59.6935 0.334665 59.7308 0.437333 59.7308 0.568C59.7308 0.754666 59.6748 1.016 59.5628 1.352L53.9068 17.48C53.8135 17.7413 53.7668 18.012 53.7668 18.292C53.7668 18.5907 53.8602 18.74 54.0468 18.74C54.4015 18.74 54.8868 18.46 55.5028 17.9C56.1188 17.3213 56.6322 16.7427 57.0428 16.164C57.1735 15.996 57.3042 15.8467 57.4348 15.716C57.5842 15.5853 57.6962 15.52 57.7708 15.52C57.8268 15.52 57.8642 15.5573 57.8828 15.632C57.9015 15.7067 57.9108 15.7907 57.9108 15.884C57.9108 16.4627 57.5935 17.1067 56.9588 17.816C56.3428 18.5253 55.6148 19.132 54.7748 19.636C53.9535 20.14 53.2908 20.392 52.7868 20.392Z" fill="white"/>
</svg>
